<?xml version="1.0" encoding="UTF-8" standalone="no"?>
<!-- Created with Inkscape (http://www.inkscape.org/) -->

<svg
   xmlns:dc="http://purl.org/dc/elements/1.1/"
   xmlns:cc="http://creativecommons.org/ns#"
   xmlns:rdf="http://www.w3.org/1999/02/22-rdf-syntax-ns#"
   xmlns:svg="http://www.w3.org/2000/svg"
   xmlns="http://www.w3.org/2000/svg"
   version="1.1"
   width="210.24336"
   height="51.030457"
   id="svg2">
  <defs
     id="defs4" />
  <metadata
     id="metadata7">
    <rdf:RDF>
      <cc:Work
         rdf:about="">
        <dc:format>image/svg+xml</dc:format>
        <dc:type
           rdf:resource="http://purl.org/dc/dcmitype/StillImage" />
        <dc:title></dc:title>
      </cc:Work>
    </rdf:RDF>
  </metadata>
  <g
     transform="translate(-6.3045765,-6.0878064)"
     id="layer1">
    <g
       transform="translate(6.3045765,9.1182647)"
       id="g2994"
       style="fill:#000000">
      <path
         d="M 24,48 C 10.746,48 0,37.254 0,24 0,10.746 10.746,0 24,0 37.254,0 48,10.746 48,24 48,37.254 37.254,48 24,48 z M 24,6 C 14.061,6 6,14.061 6,24 6,33.939 14.061,42 24,42 33.939,42 42,33.939 42,24 42,14.061 33.939,6 24,6 z m 9,21 -6,0 0,6 c 0,1.659 -1.341,3 -3,3 -1.656,0 -3,-1.341 -3,-3 l 0,-6 -6,0 c -1.656,0 -3,-1.341 -3,-3 0,-1.656 1.344,-3 3,-3 l 6,0 0,-6 c 0,-1.656 1.344,-3 3,-3 1.659,0 3,1.344 3,3 l 0,6 6,0 c 1.659,0 3,1.344 3,3 0,1.659 -1.341,3 -3,3 z"
         id="add" />
    </g>
    <g
       transform="translate(170.95971,6.0878064)"
       id="g3006"
       style="fill:#000000">
      <path
         d="m 42.588,20.196 c -1.53,0.882 -6.24,2.715 -10.554,3.804 4.314,1.089 9.024,2.922 10.557,3.804 2.865,1.656 3.849,5.325 2.193,8.196 -1.656,2.871 -5.325,3.852 -8.193,2.196 C 35.058,37.311 31.116,34.143 28.017,30.951 29.232,35.235 30,40.233 30,42 c 0,3.312 -2.688,6 -6,6 -3.312,0 -6,-2.688 -6,-6 0,-1.767 0.768,-6.765 1.986,-11.049 -3.099,3.192 -7.041,6.36 -8.574,7.245 C 8.541,39.852 4.872,38.871 3.216,36 1.56,33.129 2.541,29.46 5.412,27.804 6.942,26.922 11.652,25.089 15.969,24 11.652,22.911 6.942,21.078 5.412,20.196 2.541,18.54 1.56,14.871 3.216,12 4.872,9.129 8.541,8.148 11.412,9.804 c 1.533,0.885 5.475,4.053 8.574,7.245 C 18.768,12.765 18,7.767 18,6 c 0,-3.312 2.688,-6 6,-6 3.312,0 6,2.688 6,6 0,1.767 -0.768,6.765 -1.986,11.049 3.099,-3.192 7.044,-6.36 8.574,-7.245 2.868,-1.656 6.54,-0.675 8.193,2.196 1.659,2.871 0.675,6.54 -2.193,8.196 z"
         id="analys" />
    </g>
    <g
       transform="translate(60.852814,8.1081123)"
       id="g3018"
       style="fill:#000000">
      <path
         d="m 27,33 c -2.547,0 -4.899,-0.807 -6.84,-2.16 L 12,39 l -3,0 0,-3 8.16,-8.16 0,0 L 36,9 15.486,24.291 C 15.186,23.241 15,22.146 15,21 15,14.373 38.373,0 45,0 c 3,0 3,0 3,3 0,6.627 -14.373,30 -21,30 z m 15,-4.959 c 2.202,-2.871 4.242,-6.018 6,-9.156 L 48,39 c 0,4.971 -4.029,9 -9,9 L 9,48 C 4.029,48 0,43.971 0,39 L 0,9 C 0,4.029 4.029,0 9,0 L 29.115,0 C 25.977,1.758 22.83,3.798 19.959,6 L 9,6 C 7.341,6 6,7.341 6,9 l 0,30 c 0,1.659 1.341,3 3,3 l 30,0 c 1.659,0 3,-1.341 3,-3 l 0,-10.959 z"
         id="edit" />
    </g>
    <g
       transform="translate(117.46261,7.1377097)"
       id="g3030"
       style="fill:#000000">
      <path
         d="M 46.599,40.236 36.054,29.691 C 37.89,26.718 39,23.25 39,19.5 39,8.73 30.27,0 19.5,0 8.73,0 0,8.73 0,19.5 0,30.27 8.73,39 19.5,39 c 3.75,0 7.218,-1.11 10.188,-2.943 l 10.548,10.545 c 1.758,1.758 4.605,1.758 6.363,0 1.758,-1.758 1.758,-4.608 0,-6.366 z M 19.5,33 C 12.045,33 6,26.955 6,19.5 6,12.045 12.045,6 19.5,6 26.955,6 33,12.045 33,19.5 33,26.955 26.955,33 19.5,33 z"
         id="show" />
    </g>
  </g>
</svg>
